<svg width="1440" height="954" viewBox="0 0 1440 954" fill="none" xmlns="http://www.w3.org/2000/svg">
<path d="M59.0251 950.97L51.7575 953.525H58.679L59.7557 953.143L59.8903 953.525H62.332L61.9475 952.381L183.901 909.416C186.804 922.879 190.111 937.544 193.783 953.525H205.684C190.13 885.521 181.632 843.147 180.498 815.572C200.397 809.622 215.451 809.183 219.046 809.183L228.564 842.289C228.66 842.632 228.91 842.899 229.236 843.033C229.371 843.09 229.525 843.128 229.679 843.128C229.871 843.128 230.063 843.09 230.236 842.995L257.845 828.024C258.364 827.738 258.576 827.128 258.364 826.594L246.175 796.177L262.056 788.225L279.379 779.911L296.375 793.927L226.564 953.525H229.083L259.672 883.595L301.22 899.995L303.893 923.375L264.863 929.382C264.325 929.458 263.921 929.897 263.882 930.45L262.325 953.525H264.651L266.132 931.518L281.032 929.23L282.359 953.525H300.163L298.048 926.617L305.335 925.492L333.117 921.888L339.308 953.525H341.673L335.424 921.582L351.074 919.542L354.612 935.16L343.057 953.506H345.787L355.323 938.345L358.765 953.506H363.514L359.149 934.226L403.043 916.434L414.06 946.011C414.252 946.545 414.829 946.869 415.406 946.736L428.499 943.666L431.402 953.506H433.825L430.441 941.968C430.268 941.377 429.653 941.034 429.057 941.167L415.886 944.257L405.197 915.556L496.887 878.389L560.142 868.815L569.159 888.553C569.236 888.706 569.332 888.839 569.448 888.953L594.115 910.274L625.973 946.374L632.28 953.506H635.356L628.377 945.611L642.662 929.211L656.313 950.035C656.543 950.378 656.909 950.55 657.293 950.55C657.505 950.55 657.735 950.493 657.928 950.359C658.466 950.016 658.62 949.31 658.274 948.776L643.796 926.693L632.491 908.443L655.64 887.161L667.464 900.453L667.156 924.309C667.156 924.939 667.656 925.473 668.31 925.473H668.329C668.964 925.473 669.483 924.977 669.483 924.329L669.79 900.014C669.79 899.728 669.694 899.461 669.502 899.232L657.351 885.559L668.81 875.013L698.861 891.166C699.034 891.261 699.226 891.299 699.418 891.299C699.745 891.299 700.091 891.147 700.303 890.88L707.224 882.641L710.743 891.28C710.877 891.604 711.166 891.852 711.512 891.967L727.912 896.486L733.391 912.982C733.449 913.153 733.545 913.306 733.661 913.42L772.69 953.468H778.785L828.601 906.384C828.601 906.384 828.601 906.384 828.62 906.384C828.62 906.384 828.62 906.365 828.639 906.365L856.46 880.067L909.659 909.015L918.869 931.308L901.93 953.525H904.833L933.807 915.614L933.827 915.633C934.038 915.804 934.307 915.88 934.557 915.88C934.903 915.88 935.23 915.728 935.461 915.461C935.865 914.965 935.788 914.24 935.288 913.84L935.211 913.783L950.669 893.549L969.165 907.947C964.108 914.279 959.032 920.61 953.957 926.96L953.937 926.979C953.918 926.998 953.899 927.017 953.899 927.036C950.784 930.946 947.67 934.836 944.555 938.746C940.133 944.276 936.153 949.272 932.731 953.544H953.63C957.206 944.066 960.378 937.449 963.032 934.112C963.416 933.635 963.801 933.139 964.204 932.643L984.142 946.583C984.354 946.717 984.584 946.793 984.815 946.793C985.161 946.793 985.507 946.641 985.738 946.336L993.159 936.572C993.544 936.057 993.448 935.351 992.929 934.97C992.41 934.588 991.698 934.684 991.314 935.199L984.565 944.085L965.646 930.87C977.624 915.861 992.832 896.887 1009.41 876.291L1051.95 897.497L1020.81 953.525H1023.46L1029.98 941.816L1051.59 953.525H1056.41L1031.09 939.794L1056.97 893.225L1073.26 864.467C1073.31 864.353 1073.37 864.22 1073.39 864.105L1078.35 835.29C1078.35 835.271 1078.35 835.271 1078.35 835.252L1178.83 842.975L1163.43 857.145C1163.02 857.526 1162.93 858.136 1163.24 858.594L1177.19 880.505L1132.05 953.525H1134.78L1178.79 882.279L1256.5 952.991L1256.18 953.525H1262.91L1260 952.362L1296.71 913.134L1348.46 936.762C1346.43 942.235 1344.35 947.842 1342.25 953.525H1354.64C1356.96 947.194 1359.27 940.977 1361.5 934.97C1365.5 941.492 1369.36 947.766 1372.96 953.525H1386.61C1383.32 948.319 1379.65 942.426 1375.73 936.076L1407.51 948.529L1419.41 953.525H1425.35L1409.45 946.85L1432.29 891.547L1441.96 895.437L1441.96 892.958L1433.17 889.411L1441.96 868.129L1441.96 862.065L1440.17 866.374L1419.68 856.839L1425.68 844.31L1441.96 850.394L1441.96 847.934L1426.66 842.213L1431.68 831.724C1431.87 831.305 1431.79 830.847 1431.52 830.504L1441.96 834.775L1441.96 832.296L1409.93 819.214C1411.53 815.705 1413.18 812.082 1414.83 808.42L1441.96 819.691L1441.96 817.193L1415.78 806.323C1419.26 798.618 1422.77 790.742 1426.16 783.152L1441.98 789.522L1441.98 777.107L1430.87 772.626C1435.06 763.186 1438.85 754.585 1441.79 747.892L1441.98 747.987L1441.98 715.663C1430.31 737.174 1414.16 757.961 1376.4 769.098C1374.52 769.384 1372.61 769.708 1370.69 770.089C1353.75 773.446 1310.2 772.912 1273.48 771.196L1285.69 731.053L1316.43 689.518L1355.33 717.189C1355.54 717.342 1355.77 717.399 1356 717.399C1356.37 717.399 1356.71 717.227 1356.94 716.922C1357.31 716.407 1357.19 715.682 1356.67 715.32L1317.78 687.687L1338.62 659.521L1441.98 701.933L1441.98 699.454L1338.87 657.137L1310.07 630.058L1358.94 570.502L1441.96 611.502L1441.96 598.649L1365.17 560.719L1441.98 410.561L1441.98 389.812L1420.22 394.523L1426.81 371.257C1430.64 373.164 1435.94 375.567 1442 377.817L1442 365.479C1434.67 362.504 1429.04 359.491 1426.98 358.347C1418.77 348.392 1348.17 262.805 1335.7 251.211C1323.43 239.788 1278.48 219.821 1267.69 215.13C1237.35 159.884 1192.36 76.967 1189.77 69.4534C1188.86 65.0482 1185.21 31.828 1181.87 0.0381402L1170.22 0.0381402C1170.89 6.50291 1171.64 13.5398 1172.41 20.6339L1165.04 0.0190701L1152.74 0.0190701L1156.64 10.9462L1102.67 6.84617L1103.69 0.0190701L1101.35 0.0190701L1100.35 6.67454L1052.65 3.05122L1052.32 0.0190701L1047.65 0.0190701L1048.01 3.28006L1023.96 7.18943L1022.15 0.0190701L1019.77 0.0190701L1021.69 7.55177L984.873 13.5207L983.411 0.0190701L981.085 0.0190701L982.566 13.9021L934.807 21.6446L931.231 0.0190701L928.885 0.0190701L932.519 22.026L885.703 29.6159C885.491 19.3562 885.318 9.66855 885.184 1.23956L892.451 0.0190701L859.17 0.0190701L825.755 1.33491L825.832 0.0190701L823.505 0.0190701L821.91 30.1499H806.721C806.471 30.1499 806.24 30.2261 806.029 30.3787C805.856 30.5122 792.263 40.4096 781.669 47.9613L779.169 31.9997L796.742 24.4097C797.108 24.2572 797.377 23.8949 797.435 23.4944L800.222 2.07864C800.299 1.4684 799.895 0.915366 799.28 0.800945L795.012 0.0190701L782.38 0.0190701L797.8 2.87959L795.243 22.5599L777.458 30.2452C776.978 30.455 776.689 30.9508 776.766 31.4848L779.573 49.4679C776.939 51.3368 774.574 52.9959 772.786 54.2354C764.173 60.1471 729.758 71.3222 726.777 72.2757L702.706 70.9027L659.466 23.0558L653.736 5.09172L661.427 0.0190701L657.236 0.0190701L653.006 2.80331L652.102 0.0190701L649.66 0.0190701L657.312 23.9711C657.37 24.1237 657.447 24.2763 657.562 24.3907L700.13 71.532L609.785 104.542C607.67 104.066 594.423 100.843 591.846 92.8905C590.866 89.8965 583.925 74.4307 574.85 54.3498C574.87 54.3498 574.908 54.3498 574.927 54.3308L619.129 32.8578L630.799 60.109C630.934 60.4141 631.184 60.643 631.491 60.7383C631.607 60.7765 631.741 60.7955 631.876 60.7955C632.068 60.7955 632.26 60.7383 632.433 60.643L659.177 45.8827C659.447 45.7301 659.658 45.4632 659.735 45.158C659.812 44.8529 659.773 44.5287 659.6 44.2617L637.452 8.92482C637.182 8.4862 636.644 8.2955 636.144 8.42899L613.861 14.6649L607.593 0.0190701L605.074 0.0190701L618.225 30.741L573.928 52.2712C573.543 51.413 573.158 50.5739 572.774 49.7158C565.987 34.7076 557.97 16.9724 550.452 0.0190701L547.914 0.0190701C555.412 16.9152 563.488 34.822 570.659 50.6502C580.714 72.9051 588.655 90.4877 589.674 93.5961C592.346 101.853 603.978 105.458 608.17 106.507C605.343 111.732 594.711 131.107 589.962 135.817C586.136 139.612 570.774 148.823 561.661 154.144L525.612 118.387L470.855 0.0190701L458.088 0.0190701L481.352 50.326L396.122 42.7552C404.466 30.2261 414.521 15.1417 424.615 0.0190701L410.695 0.0190701C402.005 13.0249 392.988 26.5456 385.316 38.1021L392.488 0.0190701L390.123 0.0190701L385.047 27.0033L339.423 15.3324L342.576 0.0190701L340.211 0.0190701L331.598 41.8398L280.763 28.567L282.878 0.0190701L280.552 0.0190701L278.379 29.3489L278.379 29.368L278.379 29.387L275.034 105.687C275.015 106.24 275.38 106.716 275.899 106.85L297.356 112.285L251.885 142.244L216.816 40.0854C221.161 34.3834 231.101 19.8329 237.062 0L224.834 0C219.2 16.6864 210.741 28.9103 207.357 33.3727L199.685 20.0046C199.512 19.6994 199.224 19.5087 198.878 19.4324C198.532 19.3752 198.186 19.4706 197.917 19.6804L182.055 33.0485L139.584 0.0190701L135.835 0.0190701L180.286 34.6123L136.757 71.2841L135.104 38.7695C135.085 38.2737 134.719 37.8351 134.239 37.7207L120.992 34.4025C120.761 34.3453 120.53 34.3643 120.3 34.4406L93.6711 44.2999L51.4883 40.5431L60.2363 7.9141L76.6172 7.9141C77.1363 7.9141 77.5978 7.55177 77.7324 7.05594L79.5973 0.0190701L77.194 0.0190701L75.7136 5.62568L59.4481 5.62568L46.3356 2.89866L46.8932 0.0190701L44.5284 0.0190701L44.0669 2.4219L32.5119 0.0190701L21.2067 0.0190701L43.6439 4.67218L36.857 39.704L14.0353 50.6312L-6.42286e-08 47.9041L-6.73735e-08 50.2498L12.9009 52.767L10.4784 72.1422L-9.30956e-08 69.4343L-9.62917e-08 71.8181L2.94164 72.5809L-1.38838e-07 103.551L-1.71745e-07 128.094L1.99955 107.041L42.4904 114.955L38.9527 154.315L-2.05163e-07 153.019L-2.08257e-07 155.326L39.9717 156.661H40.0102L82.289 156.013L89.2874 200.675C57.6023 197.986 23.4178 188.489 -2.42468e-07 180.842L-2.58755e-07 192.99C5.47953 194.744 11.4397 196.556 17.8229 198.367C51.9305 208.055 81.3469 212.937 105.515 212.937C109.148 212.937 112.667 212.823 116.051 212.613C124.914 212.041 133.97 210.477 142.987 208.265L180.228 217.17L176.172 241.847C160.714 238.605 142.41 233.761 142.141 233.704C142.064 233.685 141.987 233.666 141.929 233.666L108.956 231.359C108.783 231.359 108.61 231.378 108.456 231.435L24.5713 263.816L-3.18305e-07 237.404L-3.22856e-07 240.798L23.0525 265.589L22.0719 289.961C22.0719 290.133 22.0911 290.285 22.1488 290.438L36.6648 326.004L34.7037 335.043L-3.49319e-07 260.536L-3.86087e-07 287.959L35.8765 365.021C31.4352 367.672 27.5899 369.979 24.4368 371.867L-4.76012e-07 355.028L-4.9478e-07 369.026L17.0154 380.754L8.30581 400.701C6.22936 395.877 3.47998 390.918 -5.1751e-07 385.979L-5.52028e-07 411.724C0.653697 413.86 1.19204 415.938 1.59579 417.998C1.63424 418.341 1.69192 418.684 1.80728 419.028C4.38362 432.968 1.69192 444.391 -6.0291e-07 449.673L-6.28427e-07 468.705L8.55575 458.865C8.94028 458.427 9.2479 457.95 9.47862 457.416C9.95928 456.31 17.073 439.7 13.42 417.941L28.8204 382.68C32.7233 380.334 36.7224 377.951 40.7792 375.51L75.7713 450.684L48.7005 460.715C48.2967 460.867 48.0276 461.211 47.9507 461.63L45.1436 480.224L31.2045 511.518L8.03664 523.265C7.4983 523.532 7.26758 524.18 7.4983 524.733L65.1198 660.837L74.9253 683.969C69.8495 686.257 64.9276 688.508 60.1402 690.682L-7.39217e-07 551.336L-7.47041e-07 557.172L58.0445 691.673C55.1413 692.989 52.3151 694.286 49.5272 695.544L-7.7716e-07 579.636L-7.85061e-07 585.529L47.4315 696.498C41.0868 699.397 35.0497 702.143 29.3779 704.736L11.9588 660.036C11.7281 659.445 11.0552 659.159 10.4592 659.368C9.86315 659.597 9.55552 660.265 9.78624 660.856L27.263 705.69C16.8039 710.457 7.65211 714.653 -9.62917e-07 718.181L-9.7992e-07 730.862C8.34426 727.029 18.9572 722.147 31.4352 716.445L46.4318 754.929C30.7046 761.737 15.5157 768.316 1.73038 774.266L-1.03129e-06 769.174L-1.04246e-06 777.508C0.115357 777.451 0.211489 777.412 0.326848 777.374L32.8964 873.678L-1.18958e-06 887.237L-1.19293e-06 889.735L33.627 875.871L59.0251 950.97ZM284.685 953.487L283.34 928.867L295.741 926.96L297.759 952.8L284.685 953.487ZM614.764 16.8008L635.933 10.87L656.966 44.4906L632.414 58.0494L614.764 16.8008ZM183.401 907.146L61.2169 950.207L35.7803 874.994L72.9258 859.681C73.5026 859.433 73.7909 858.785 73.5602 858.193L65.7735 838.303C65.7543 838.246 65.7159 838.208 65.6774 838.151L164.963 802.909L169.058 801.46C167.5 824.592 172.749 857.64 183.401 907.146ZM907.717 117.052C907.756 116.633 907.563 116.232 907.217 116.004C906.871 115.775 906.429 115.737 906.044 115.927L888.645 124.471C887.895 110.988 887.241 92.0324 886.703 72.0469L941.017 73.4009L941.498 76.3186C941.383 77.5582 940.614 85.9681 940.479 98.0013C940.479 98.0776 940.46 98.1348 940.479 98.2111C940.421 104.39 940.537 111.522 940.998 119.131C940.998 119.15 940.979 119.188 940.979 119.207C940.979 119.265 940.998 119.303 941.017 119.36C941.69 130.363 943.113 142.32 945.785 153.82C948.669 166.177 956.052 192.494 964.57 221.824L898.027 233.475C897.892 231.607 897.758 229.719 897.623 227.831L907.717 117.052ZM896.604 213.509C894.297 182.253 891.778 151.436 890.163 142.206C889.683 139.422 889.221 134.063 888.798 126.931L905.237 118.864L896.604 213.509ZM1058.86 101.72L1062.39 133.91L1037.28 126.206L1037.28 99.3172L1058.86 101.72ZM1037.28 96.9715L1037.28 64.3044L1055.13 67.8705L1058.59 99.3744L1037.28 96.9715ZM1008.71 197.776L1002.66 180.251L1067.08 176.437L1068.1 185.724L1008.71 197.776ZM1068.35 187.993L1069.47 198.043L1016.29 219.65L1009.48 199.95L1068.35 187.993ZM1001.87 177.981L998.985 169.648C998.773 169.038 998.12 168.732 997.505 168.942C996.889 169.152 996.582 169.8 996.793 170.411L1014.5 221.595C1014.6 221.9 1014.83 222.129 1015.12 222.262C1015.27 222.338 1015.42 222.358 1015.6 222.358C1015.75 222.358 1015.9 222.319 1016.04 222.281L1069.74 200.465L1069.76 200.732C1063.51 223.349 1054.84 247.778 1048.82 257.771L982.527 274.743C968.761 228.346 952.63 173.004 948.035 153.286C945.478 142.32 944.094 130.916 943.401 120.352H975.24C975.875 120.352 976.394 119.837 976.394 119.207L976.394 109.939L997.812 116.518L987.199 148.27C987.007 148.88 987.334 149.529 987.93 149.719C988.045 149.758 988.18 149.777 988.295 149.777C988.776 149.777 989.237 149.472 989.391 148.995L1000 117.205L1011.58 120.752L1011.58 151.226C1011.58 151.855 1012.1 152.37 1012.73 152.37L1064.39 152.37L1066.8 174.167L1001.87 177.981ZM1117.86 291.353L1111.77 277.337C1111.52 276.765 1110.86 276.498 1110.29 276.726L1099.14 281.036C1098.71 281.189 1098.44 281.57 1098.4 282.009L1096.79 302.204L1064.64 310.862C1064.05 311.015 1063.68 311.606 1063.82 312.197L1068.14 333.212C1068.26 333.765 1068.74 334.128 1069.28 334.128C1069.35 334.128 1069.43 334.127 1069.51 334.108L1123.32 323.238C1123.63 332.163 1123.88 339.467 1124.01 343.434C1097.71 342.976 1066.76 341.965 1061.66 339.219C1054.76 335.481 1016.54 304.149 992.409 284.049L1120.71 251.211C1121.02 259.487 1121.57 274.762 1122.17 290.724L1117.86 291.353ZM1122.23 293.05C1122.57 302.681 1122.94 312.407 1123.23 320.912L1070.16 331.629L1066.3 312.807L1098.17 304.245C1098.65 304.111 1098.98 303.711 1099.02 303.234L1100.64 282.943L1110.06 279.301L1116.05 293.108C1116.27 293.584 1116.79 293.871 1117.29 293.794L1122.23 293.05ZM1213.78 716.045C1213.78 716.121 1213.78 716.197 1213.78 716.274C1214.07 729.337 1213.22 740.817 1212.82 744.497C1210.3 743.773 1204.19 741.999 1196.02 739.501C1196.04 739.406 1196.06 739.329 1196.04 739.234L1192.13 707.177C1192.06 706.548 1191.48 706.09 1190.85 706.166C1190.21 706.243 1189.75 706.815 1189.83 707.444L1193.63 738.757C1178.62 734.123 1157.74 727.334 1139.41 720.164C1148.05 710.743 1154.37 704.488 1157.43 702.677C1166.29 697.394 1187 689.747 1209.21 682.31C1212.34 691.883 1213.51 704.545 1213.78 716.045ZM1211.4 681.585C1233.39 674.262 1256.52 667.225 1270.92 662.934L1215.99 713.604C1215.61 702.543 1214.36 690.701 1211.4 681.585ZM891.605 736.526C891.432 735.954 890.817 735.611 890.24 735.744L871.841 740.073C871.245 740.207 870.86 740.779 870.956 741.37L873.417 756.435L857.729 761.355L848.211 731.606L905.16 717.57L909.274 743.735L895.681 749.341L891.605 736.526ZM893.509 750.161L875.667 755.749L873.437 742.075L889.74 738.242L893.509 750.161ZM870.783 802.146L865.073 784.297L915.273 770.929L920.291 789.446L870.783 802.146ZM920.887 791.658L927.52 816.125L875.801 827.433L871.341 804.378L920.887 791.658ZM868.88 803.748L873.571 828.082L831.869 844.196L802.799 810.823L851.153 748.426L855.864 763.148L855.864 763.167C855.864 763.167 855.864 763.167 855.864 763.186L862.458 783.782L862.458 783.801C862.458 783.82 862.477 783.82 862.477 783.82L868.88 803.748ZM829.889 845.416L798.165 872.057L774.767 846.961L801.357 812.654L829.889 845.416ZM850.307 745.756L773.171 845.283L727.412 796.216L826.082 702.028L841.117 718.161L809.374 754.624C808.951 755.1 809.009 755.825 809.489 756.245C809.97 756.664 810.701 756.607 811.124 756.13L842.194 720.431L850.307 745.756ZM724.24 796.063L715.184 804.702L690.766 776.497L726.854 741.046L752.099 769.441L725.778 794.576C725.355 794.385 724.855 794.442 724.49 794.766C724.143 795.109 724.047 795.624 724.24 796.063ZM541.704 783.839C541.127 783.572 540.435 783.801 540.147 784.373L529.803 805.312L517.709 806.819L507.923 791.505L521.92 774.514H543.319C543.954 774.514 544.473 773.999 544.473 773.37C544.473 772.74 543.954 772.225 543.319 772.225H522.535L522.535 755.806L541.031 758.438C541.089 758.438 541.146 758.457 541.204 758.457C541.512 758.457 541.8 758.342 542.031 758.113C542.281 757.865 542.415 757.503 542.358 757.141L538.82 731.377C538.762 730.958 538.493 730.614 538.089 730.462L522.747 724.512L533.475 679.583L543.031 682.081C543.607 682.233 544.203 681.928 544.415 681.375L557.893 645.39L560.142 648.022C560.161 648.041 560.2 648.06 560.219 648.079C560.238 648.098 560.238 648.136 560.258 648.155L659.812 731.606L633.895 755.958L572.389 703.306C571.909 702.886 571.178 702.944 570.755 703.42L560.142 715.358C559.719 715.835 559.758 716.56 560.238 716.979C560.719 717.399 561.45 717.361 561.873 716.884L571.736 705.804L598.384 728.631L585.675 740.741C585.213 741.179 585.194 741.904 585.636 742.362L615.341 773.408L600.921 786.947L572.409 813.741L559.661 799.019C559.239 798.542 558.508 798.485 558.027 798.885C557.547 799.305 557.489 800.03 557.893 800.506L570.717 815.324L555.336 829.76L531.937 806.246L542.204 785.479C542.531 784.793 542.281 784.106 541.704 783.839ZM308.603 732.216L315.736 763.663L306.623 767.095L295.548 735.916L308.603 732.216ZM293.703 734.047L250.693 745.889L240.676 711.506C240.561 711.086 240.196 710.762 239.773 710.686L225.737 708.226C225.526 706.128 225.218 704.107 224.834 702.2C224.699 701.532 224.488 700.674 224.199 699.683L296.067 677.008L308.084 729.966L293.703 734.047ZM300.047 673.557C299.913 672.927 299.509 672.393 298.932 672.069C298.74 671.955 298.528 671.916 298.336 671.878L293.78 656.737L352.824 636.999L371.493 692.817L358.111 698.138C357.573 698.348 357.265 698.939 357.419 699.492L372.627 756.283L320.177 762.233L300.047 673.557ZM382.625 636.179L399.371 629.657L420.943 673.099L399.909 681.471L382.625 636.179ZM397.756 682.329L373.627 691.921L358.169 645.676L380.471 636.999L397.756 682.329ZM357.438 643.502L354.65 635.149L350.497 622.754L389.373 609.519L398.352 627.598L357.438 643.502ZM359.899 699.873L421.981 675.177L447.322 726.209L449.321 740.512L414.964 746.5C414.887 746.519 414.791 746.538 414.714 746.576L398.583 753.308L374.934 755.997L359.899 699.873ZM424.135 674.319L479.045 652.465L479.141 653.972L461.626 738.376L451.609 740.13L449.59 725.713C449.571 725.599 449.533 725.465 449.475 725.37L424.135 674.319ZM462.607 740.55L474.642 742.514L479.449 750.237L463.126 758.819H463.106L433.959 774.914L417.059 748.483L462.607 740.55ZM434.286 777.374L463.318 761.355L478.622 784.411L438.92 803.71L425.903 785.689L434.286 777.374ZM465.356 760.249L480.679 752.202L500.771 784.411L480.949 783.763L465.356 760.249ZM482.737 751.115L491.485 746.519C491.831 746.328 492.061 745.985 492.1 745.603L494.157 721.976L510.519 714.977C511.115 714.729 511.384 714.042 511.134 713.47C510.884 712.879 510.192 712.612 509.615 712.86L492.619 720.126C492.234 720.297 491.965 720.66 491.927 721.079L489.85 744.764L481.525 749.131L476.353 740.836C476.18 740.55 475.892 740.359 475.565 740.302L464.01 738.414L481.468 654.277C481.487 654.181 481.487 654.086 481.487 653.972L481.333 651.264C481.506 650.977 481.545 650.615 481.41 650.272C481.372 650.177 481.314 650.119 481.256 650.043L480.083 630.267C480.064 630.096 480.026 629.924 479.949 629.772L465.567 603.855L528.38 595.77L535.186 618.711C535.225 618.863 535.302 619.016 535.417 619.13L556.22 643.292L542.665 679.506L532.975 676.97C532.668 676.894 532.36 676.932 532.091 677.104C531.822 677.256 531.629 677.523 531.552 677.828L520.324 724.874C520.305 724.97 520.286 725.046 520.286 725.141L520.286 725.179L520.286 772.912L506.712 789.407L482.737 751.115ZM691.805 475.018C692.016 475.38 692.401 475.59 692.804 475.59C692.997 475.59 693.189 475.532 693.381 475.437L693.862 475.151C695.631 477.516 697.4 479.88 699.072 482.15C698.822 482.15 698.572 482.207 698.361 482.379L670.771 503.565L656.62 483.351C667.252 470.612 676.289 459.514 679.211 455.928C683.23 461.134 687.882 467.218 692.439 473.301L692.189 473.435C691.689 473.759 691.497 474.464 691.805 475.018ZM699.803 484.209C699.995 484.057 700.11 483.847 700.187 483.637C707.34 493.344 713.069 501.487 713.877 503.604C711.877 505.701 699.611 515.675 686.575 526.125L672.117 505.473L699.803 484.209ZM684.768 527.575C678.942 532.228 673.059 536.919 667.925 540.962C667.426 541.363 667.349 542.087 667.733 542.583C667.964 542.869 668.291 543.022 668.637 543.022C668.887 543.022 669.137 542.945 669.367 542.774C680.038 534.345 714.953 506.636 716.107 504.5C716.453 503.871 717.222 502.345 695.919 474.007L723.028 458.579L725.797 466.074C726.008 466.665 726.681 466.97 727.277 466.76C727.873 466.531 728.181 465.883 727.969 465.292L724.72 456.52C724.605 456.195 724.355 455.947 724.028 455.833C723.701 455.719 723.355 455.757 723.048 455.909L707.609 464.682L703.61 457.282L724.259 443.819C724.797 443.476 724.951 442.751 724.586 442.217C724.24 441.683 723.509 441.53 722.971 441.893L701.437 455.928C700.937 456.253 700.764 456.901 701.053 457.435L705.59 465.826L694.477 472.138C690.536 466.913 685.883 460.829 680.403 453.735L683.71 409.817L735.622 370.761L765.192 429.192L778.939 489.549L767.499 491.57C767.307 491.609 767.114 491.685 766.961 491.818L667.675 574.564L584.79 606.544L577.869 578.797C577.754 578.339 577.369 577.996 576.908 577.939L532.11 571.684L535.705 527.155C553.317 530.931 578.503 535.584 595.826 535.584C603.959 535.584 610.342 534.554 613.419 531.942C620.744 525.687 639.336 504.004 655.063 485.201L684.768 527.575ZM660.369 412.982L631.664 390.251C648.161 379.228 675.212 361.112 697.361 346.084L718.779 369.026L660.369 412.982ZM1040.8 650.978L1041.21 679.964C1041.17 679.926 1041.13 679.907 1041.09 679.869C983.488 631.125 948.727 601.929 933.327 589.038L953.053 563.236L1007.02 591.021C1007.19 591.116 1007.37 591.155 1007.56 591.155C1007.98 591.155 1008.39 590.926 1008.6 590.525C1008.89 589.953 1008.68 589.267 1008.1 588.981L926.078 546.759L914.619 494.526L936.018 470.937L1018.38 497.406L1007.58 532.266C1007.39 532.876 1007.73 533.525 1008.35 533.696C1008.46 533.734 1008.58 533.754 1008.69 533.754C1009.19 533.754 1009.66 533.429 1009.81 532.934L1020.71 497.806H1047.45L1039.32 543.67L1040.8 650.978ZM662.311 730.614L647.372 718.085L715.876 656.546C716.126 656.336 716.261 656.012 716.261 655.688L716.261 626.778L761.154 599.717C761.289 599.641 761.404 599.526 761.5 599.393L776.362 578.683L797.684 573.858L819.237 579.999L821.487 589.305C821.487 589.305 821.487 589.305 821.487 589.324L832.369 634.196L744.658 720.336C744.658 720.336 744.658 720.336 744.658 720.355L688.459 775.544L661.638 798.084L653.659 772.988C653.602 772.778 653.467 772.607 653.313 772.454L635.702 757.389L662.388 732.312C662.619 732.083 662.753 731.778 662.753 731.453C662.715 731.129 662.561 730.824 662.311 730.614ZM800.549 438.498L809.355 462.546L776.555 468.267L771.306 445.249L800.549 438.498ZM770.787 443.018L767.73 429.573L794.281 421.392L799.742 436.305L770.787 443.018ZM810.143 464.739L823.198 500.4L786.668 507.723C786.168 507.818 785.822 508.238 785.764 508.714L777.055 470.517L810.143 464.739ZM820.429 558.087L792.493 533.353L831.965 524.333L841.232 549.639L820.429 558.087ZM842.059 551.794L853.403 579.522L823.448 587.588L821.352 578.95L821.352 560.185L842.059 551.794ZM790.917 531.351L785.937 509.477C786.149 509.801 786.514 509.992 786.898 509.992C786.975 509.992 787.052 509.992 787.129 509.973L824.005 502.574L831.177 522.14L790.917 531.351ZM787.571 527.174L763.135 539.036L758.751 533.754C758.347 533.258 757.617 533.2 757.117 533.601C756.617 534.001 756.559 534.726 756.963 535.222L761.943 541.191C762.173 541.458 762.5 541.61 762.827 541.61C763 541.61 763.173 541.572 763.346 541.496L788.11 529.463L788.821 532.59L779.535 551.05L726.085 579.56L714.511 559.861L722.336 555.513C722.605 555.36 722.817 555.093 722.894 554.788C722.971 554.483 722.913 554.159 722.759 553.892L713.915 539.837C713.8 539.665 713.646 539.551 713.492 539.455L768.306 493.763L779.535 491.78L787.571 527.174ZM720.125 554.101L712.338 558.43C712.069 558.583 711.877 558.831 711.781 559.136C711.704 559.441 711.742 559.746 711.896 560.013L724.028 580.647L700.11 593.405C700.284 593.062 700.303 592.661 700.091 592.299L683.806 565.162C683.672 564.933 683.441 564.781 683.21 564.685L711.839 540.828C711.858 540.905 711.877 541 711.935 541.076L720.125 554.101ZM698.092 593.462C698.284 593.786 698.611 593.958 698.976 593.996L576.946 659.063L562.276 646.763L567.429 615.755L668.752 576.661C668.867 576.623 668.983 576.547 669.079 576.471L681.672 565.982C681.692 566.115 681.73 566.23 681.807 566.363L698.092 593.462ZM780.957 552.9C781.169 552.785 781.342 552.614 781.438 552.404L790.398 534.612L819.026 559.956L819.026 577.577L798.011 571.589C797.819 571.531 797.627 571.531 797.435 571.57L775.401 576.566C775.132 576.623 774.882 576.795 774.709 577.024L759.732 597.905L714.492 625.176C714.146 625.385 713.934 625.748 713.934 626.167L713.934 655.211L645.584 716.617L578.849 660.684L780.957 552.9ZM762.769 705.785L774.382 719.229L758.636 733.551L747.042 721.232L762.769 705.785ZM745.389 722.853L757.713 735.954C757.943 736.202 758.251 736.316 758.559 736.316C758.847 736.316 759.116 736.221 759.347 736.011L775.882 720.984L788.09 735.096L753.771 767.858L728.508 739.444L745.389 722.853ZM764.423 704.164L797.665 671.516L816.392 691.597L824.525 700.312L789.782 733.475L764.423 704.164ZM799.299 669.895L833.176 636.618L844.424 665.089L817.295 689.232L799.299 669.895ZM823.986 589.839L854.268 581.677L869.053 617.815L834.426 632.956L823.986 589.839ZM844.212 550.974L865.611 543.46L890.183 608.585L871.187 616.899L844.212 550.974ZM867.784 542.697L879.454 538.597L904.391 602.368L892.298 607.669L867.784 542.697ZM881.646 537.815L894.97 533.143L914.773 587.531C915.119 588.485 915.715 589.324 916.504 589.972C916.581 590.029 918.407 591.555 922.079 594.625L906.544 601.414L881.646 537.815ZM924.021 596.284C938.345 608.28 973.548 637.838 1033.57 688.603C1036.11 690.739 1038.63 692.817 1041.15 694.877L1040.17 730.157L914.581 616.995L907.486 603.512L924.021 596.284ZM1020.02 495.499L936.018 468.496C935.595 468.362 935.115 468.476 934.807 468.82L912.505 493.401C912.255 493.668 912.159 494.05 912.235 494.412L923.944 547.751C924.021 548.075 924.233 548.361 924.54 548.533L950.996 562.149L931.577 587.531C928.501 584.957 926.367 583.164 925.156 582.154L883.973 469.03C883.876 468.782 883.761 468.534 883.646 468.286L871.322 445.249L918.984 412.372H959.686C960.321 412.372 960.84 411.857 960.84 411.228L960.84 357.355L1002.14 347.896L1017.65 390.556C1017.71 390.709 1017.79 390.823 1017.88 390.937L1041.01 415.843L1044.07 465.73C1044.09 466.074 1044.26 466.379 1044.53 466.589L1053.9 473.511L1057.32 495.499H1020.02ZM873.187 473.339L894.163 530.969L880.8 535.661L831.619 409.893L840.463 407.166C845.443 419.771 851.134 432.11 857.555 444.086L873.187 473.339ZM878.628 536.442L866.976 540.542L819.141 413.764L829.408 410.599L878.628 536.442ZM864.804 541.305L843.386 548.838L796.512 420.725L816.93 414.432L864.804 541.305ZM795.685 418.57L767.903 347.019C775.209 342.499 781.9 339.372 787.956 337.675L816.103 412.296L795.685 418.57ZM793.474 419.257L766.961 427.418L737.563 369.35L763.269 350.013C764.154 349.403 765.038 348.85 765.903 348.278L793.474 419.257ZM575.869 580.113L582.676 607.383L565.968 613.829C565.583 613.981 565.314 614.306 565.237 614.706L560.296 644.589L537.301 617.872L530.341 594.435L531.995 574.01L575.869 580.113ZM522.535 726.858L536.609 732.312L539.839 755.901L522.535 753.441L522.535 726.858ZM632.222 757.484L617.072 771.729L588.155 741.522L600.191 730.061L632.222 757.484ZM572.274 816.964L583.156 829.55C583.348 829.779 583.637 829.931 583.944 829.951L592.731 830.656C592.769 830.656 592.789 830.656 592.827 830.656C593.423 830.656 593.923 830.198 593.981 829.607C594.038 828.978 593.558 828.425 592.923 828.368L584.617 827.7L573.966 815.4L601.729 789.312L616.187 804.339C616.418 804.568 616.725 804.702 617.033 804.702C617.321 804.702 617.61 804.587 617.841 804.378C618.302 803.939 618.321 803.214 617.879 802.757L603.421 787.729L633.991 759.01L651.525 774.018L659.696 799.724L585.213 862.313L556.989 831.343L572.274 816.964ZM626.781 830.389L649.487 854.761L637.701 863.419L632.03 856.668C631.818 856.401 631.491 856.248 631.145 856.248C630.761 856.267 630.472 856.401 630.261 856.649L612.823 876.844L597.288 855.18L626.781 830.389ZM628.55 828.902L660.446 802.089L671.944 838.284L651.372 853.388L628.55 828.902ZM662.369 800.487L689.055 778.061L713.511 806.304L706.897 812.616L673.905 836.835L662.369 800.487ZM826.966 699.568L818.891 690.91L845.347 667.378L857.825 698.958L842.655 716.388L826.966 699.568ZM846.923 665.07C846.923 665.051 846.904 665.032 846.904 665.013L835.099 635.187L869.86 619.989L892.932 688.927L859.863 697.814L846.923 665.07ZM871.975 619.054L891.086 610.701L925.425 680.193L895.182 688.317L871.975 619.054ZM893.201 609.767L905.333 604.465L912.581 618.253C912.639 618.368 912.735 618.482 912.831 618.577L1011.48 707.463L996.063 727.22L953.418 693.752C952.919 693.351 952.188 693.447 951.784 693.943C951.38 694.438 951.476 695.163 951.976 695.563L1037.65 762.786L1008.85 768.182L935.134 699.244L928.155 680.536C928.155 680.517 928.136 680.498 928.116 680.479C928.116 680.46 928.116 680.441 928.097 680.422L893.201 609.767ZM1039.21 764.826L1037.59 823.047C1034.57 826.747 1031.52 830.504 1028.46 834.299L1014.6 823.581L1009.77 770.337L1039.21 764.826ZM997.927 728.631L1013.25 709.008L1040.09 733.189L1039.32 761.107L997.927 728.631ZM1042.34 735.229L1081.1 770.147C1068.39 785.365 1054.55 802.204 1039.98 820.091L1042.34 735.229ZM1042.42 732.197L1043.4 696.689C1065.55 714.424 1087.06 728.364 1107.13 739.348C1099.6 748.102 1091.37 757.827 1082.56 768.373L1042.42 732.197ZM1103.56 702.314C1089.43 691.578 1070.1 674.682 1057.05 663.03C1057.14 662.992 1057.26 662.954 1057.34 662.877L1065.22 656.603L1092.66 662.992L1108.83 690.91L1103.56 702.314ZM1110.82 692.131L1144.66 698.386C1140.4 702.391 1134.8 708.207 1128.11 715.568C1118.71 711.525 1110.67 707.463 1105.46 703.725L1110.82 692.131ZM1103.31 705.022C1108.54 708.951 1116.79 713.184 1126.46 717.38C1122.92 721.308 1119.07 725.618 1114.98 730.309C1092.64 718.333 1068.35 702.581 1043.53 681.89L1043.13 653.59C1051.34 661.047 1083.14 689.861 1103.31 705.022ZM1117.63 744.898C1153.8 763.32 1184.46 772.035 1204.25 776.116C1203.21 779.853 1202.13 783.744 1201.04 787.653L1104.29 760.573C1108.92 755.081 1113.38 749.837 1117.63 744.898ZM1102.63 762.5L1130.47 770.299L1127.05 782.065L1094.12 772.626C1097.02 769.193 1099.87 765.799 1102.63 762.5ZM1132.72 770.929L1200.4 789.865C1199.25 793.984 1198.11 798.103 1197 802.089L1129.28 782.695L1132.72 770.929ZM1202.94 789.388C1202.96 789.388 1202.96 789.388 1202.94 789.388C1204.15 785.04 1205.34 780.712 1206.5 776.573C1207.09 776.688 1207.67 776.802 1208.23 776.917C1225.01 780.826 1236.47 783.934 1244.35 787.005L1191.11 831.877C1193.21 824.401 1198.11 806.761 1202.94 789.388ZM1207.34 764.883C1203.8 764.082 1200.07 763.243 1196.15 762.366C1178.39 757.885 1153.8 749.894 1125.51 735.801C1129.94 730.748 1134.03 726.133 1137.72 722.052C1168.02 734.009 1205.34 744.783 1212.36 746.786C1211.67 749.303 1209.78 756.092 1207.34 764.883ZM1151.45 692.836C1150.26 693.561 1148.68 694.782 1146.8 696.441L1110.88 689.804L1094.42 661.409C1094.27 661.142 1094 660.932 1093.69 660.856L1065.22 654.219C1064.87 654.143 1064.51 654.219 1064.22 654.448L1055.9 661.085C1055.7 661.237 1055.59 661.447 1055.53 661.676C1049.03 655.859 1044.36 651.588 1043.09 650.424L1041.59 543.861L1049.78 497.806H1058.63L1158.12 499.103C1163.81 524.104 1170.31 552.538 1177.66 584.671C1182.15 604.37 1185.14 617.376 1185.52 619.092C1186.98 625.71 1198.59 658.872 1203.3 672.164C1181.25 679.621 1160.76 687.306 1151.45 692.836ZM1128.99 348.125C1134.38 348.201 1139.88 348.278 1145.45 348.354C1156.72 348.487 1165.64 348.602 1168.97 348.831C1169.18 348.85 1169.39 348.85 1169.64 348.85C1182.98 348.85 1259.52 328.368 1281.4 322.438L1305.22 425.34C1305.24 425.454 1305.3 425.55 1305.32 425.645C1305.34 425.721 1305.34 425.778 1305.36 425.855L1340.23 530.264L1179.06 569.872C1162.74 498.436 1132.19 364.716 1128.99 348.125ZM1232.74 330.504C1203.96 337.846 1175.1 344.673 1169.29 344.235C1165.83 343.987 1156.85 343.872 1145.51 343.739C1140.55 343.682 1134.78 343.605 1128.65 343.51C1128.21 328.979 1125.98 268.66 1125.28 250.028L1195.86 231.969L1215.42 239.025L1232.76 291.735L1232.76 330.504H1232.74ZM1157.62 496.796L1059.66 495.518L1056.11 472.71C1056.07 472.405 1055.9 472.138 1055.65 471.966L1046.34 465.082L1043.28 415.328C1043.26 415.061 1043.17 414.813 1042.97 414.622L1019.71 389.583L1003.93 346.237C1003.68 345.436 995.716 319.1 985.776 285.766L986.853 285.499C1001.7 297.875 1050.84 338.666 1059.39 343.3C1065.2 346.447 1091.89 347.515 1124.26 348.087C1125.86 356.668 1135.84 401.254 1157.62 496.796ZM1054.86 256.188C1062.37 242.019 1069.83 217.476 1073.35 205.004L1114.75 240.856L1054.86 256.188ZM980.278 275.277L971.28 277.585L901.546 285.556C900.95 276.231 899.681 257.141 898.181 235.745L965.204 223.998C970.107 240.875 975.356 258.648 980.278 275.277ZM943.805 76.0707L943.363 73.439L989.795 74.5832L1025.63 93.7105L1011.87 118.368L1000.75 114.955L1003.95 105.401C1004.14 104.79 1003.81 104.142 1003.21 103.951C1002.6 103.741 1001.95 104.085 1001.75 104.676L998.543 114.287L942.805 97.1622C942.959 84.8429 943.786 76.5474 943.805 76.3567C943.824 76.2614 943.824 76.166 943.805 76.0707ZM1014.14 119.074L1027.69 94.7975L1034.98 98.6879L1034.98 125.462L1029.63 123.822C1029.61 123.822 1029.59 123.803 1029.57 123.803L1014.14 119.074ZM1029.25 150.025H1013.92L1013.92 121.419L1028.09 125.767L1029.25 150.025ZM974.068 109.176L974.068 118.006H943.248C942.863 111.369 942.748 105.114 942.767 99.5651L974.068 109.176ZM1047.2 150.025L1047.2 131.641L1062.68 136.389L1064.18 150.025H1047.2ZM1044.94 130.935C1044.92 131.031 1044.88 131.107 1044.88 131.202L1044.88 150.025L1031.57 150.025L1030.44 126.492L1044.94 130.935ZM1034.98 96.0752L991.198 72.7143L989.583 57.6108L1032.8 51.2986L1034.98 59.842L1034.98 96.0752ZM989.333 55.3033L987.68 39.7993L1027.56 30.5885L1032.25 49.0293L989.333 55.3033ZM988.814 72.2567L942.998 71.1125L939.652 50.8791L985.392 40.3142L988.814 72.2567ZM940.633 71.0553L886.626 69.7203C886.51 65.2198 886.395 60.6811 886.28 56.1424L937.364 51.3749L940.633 71.0553ZM973.029 288.95C973.298 288.912 973.548 288.874 973.818 288.798L983.585 286.3C992.429 316.011 999.735 340.173 1001.41 345.703L959.398 355.333C958.879 355.448 958.494 355.925 958.494 356.459L958.494 410.084H918.58C918.349 410.084 918.119 410.16 917.926 410.294L870.206 443.228L867.803 438.727C855.191 415.156 845.385 390.175 838.656 364.506C832.004 335.462 831.581 317.384 837.387 309.26C839.925 305.694 843.982 303.711 850.173 303.005L973.029 288.95ZM839.636 405.03L818.334 411.59L790.225 337.083C796.454 335.672 801.972 335.844 806.721 337.617C818.545 342.023 824.505 356.192 827.409 367.29C830.754 380.067 834.849 392.673 839.636 405.03ZM821.987 333.727C818.603 330.676 814.873 328.349 810.797 326.843C806.49 325.241 801.857 324.535 796.896 324.707L821.391 306.285L826.024 305.751C822.563 312.407 821.218 321.503 821.987 333.727ZM720.644 367.634L699.303 344.769C718.376 331.82 733.353 321.465 733.91 320.511C734.795 319.024 737.756 310.042 739.698 304.016C756.655 304.95 779.362 305.198 798.127 305.198C800.011 305.198 801.837 305.198 803.645 305.198L720.644 367.634ZM731.988 319.234C730.93 320.359 716.664 330.18 697.688 343.052L660.523 303.253L658.043 289.465C681.307 294.919 710.281 301.232 726.258 303.005C729.431 303.348 733.18 303.653 737.294 303.901C735.064 310.805 732.584 318.204 731.988 319.234ZM658.312 303.997C658.351 304.206 658.447 304.416 658.601 304.569L666.656 313.189L643.469 322.304L627.031 281.971C632.683 283.382 643.2 285.975 655.582 288.893L658.312 303.997ZM641.316 323.143L594.269 341.622L591.923 337.922L602.786 292.707L624.397 281.608L641.316 323.143ZM668.329 315L695.746 344.368C675.366 358.175 650.064 375.166 629.761 388.744L613.072 375.166L613.149 373.431C613.207 372.249 612.899 371.085 612.265 370.094L595.5 343.605L668.329 315ZM612.938 378.027L628.973 391.071L658.447 414.413L609.266 451.409L612.938 378.027ZM681.307 411.667L678.154 453.64C674.366 458.312 624.743 519.298 611.977 530.206C603.69 537.281 565.026 531.198 535.302 524.752C535.167 524.676 534.994 524.619 534.821 524.6C534.763 524.6 534.725 524.619 534.667 524.619C532.552 524.161 530.495 523.704 528.495 523.246C532.725 521.892 535.129 521.11 535.359 521.053C535.975 520.862 536.571 520.557 537.09 520.156L681.307 411.667ZM533.475 526.679L531.514 550.859L468.375 558.182L464.202 544.318C490.831 535.451 512.134 528.528 524.266 524.619C526.919 525.21 530.014 525.916 533.475 526.679ZM466.452 559.765C466.606 560.261 467.048 560.585 467.567 560.585C467.605 560.585 467.663 560.585 467.702 560.585L531.341 553.205L528.092 593.538L464.318 601.738L437.42 553.3C445.995 550.402 454.224 547.656 462.03 545.062L466.452 559.765ZM477.757 630.687L478.911 650.043L423.116 672.241L374.703 574.754C395.814 567.393 416.309 560.395 435.19 554.025L477.757 630.687ZM388.335 607.44L349.767 620.561L338.692 587.455C350.036 583.412 361.341 579.426 372.492 575.536L388.335 607.44ZM347.94 622.391L352.093 634.787L293.126 654.505L279.456 609.1C298.067 602.12 317.313 595.102 336.539 588.237L347.94 622.391ZM296.01 672.203L222.815 695.277C219.277 684.56 211.664 664.746 201.8 639.898C223.968 630.42 249.847 620.217 277.245 609.92L296.01 672.203ZM136.142 718.333C151.081 711.773 163.078 706.452 172.692 702.143L183.381 734.753L147.774 751.115L136.142 718.333ZM152.965 772.645L140.391 777.088L133.45 760.383L146.467 754.28L152.965 772.645ZM145.678 752.106L131.451 758.781C130.893 759.048 130.643 759.696 130.874 760.268L138.661 778.995C138.853 779.434 139.276 779.701 139.738 779.701C139.872 779.701 140.007 779.682 140.122 779.644L153.734 774.838L163.078 801.155L125.837 814.37L106.86 763.072L96.7088 735.611C110.802 729.47 123.184 724.054 134.047 719.287L145.678 752.106ZM148.562 753.308L184.131 736.965L190.976 757.846C190.092 758.609 189.207 759.353 188.265 760.116C176.979 769.06 170.884 780.864 169.25 798.962L165.27 800.373L148.562 753.308ZM186.246 735.992L213.432 723.501C210.991 735.096 204.069 746.137 192.879 756.187L186.246 735.992ZM185.516 733.78L174.826 701.189C193.514 692.817 202.723 688.469 207.28 686.105C210.645 695.163 212.932 701.838 213.471 704.45C214.586 709.961 214.701 715.396 213.913 720.736L185.516 733.78ZM206.511 684.045C201.185 686.734 189.592 692.055 174.114 698.977L160.694 658.052C170.404 653.724 180.267 649.337 190.245 644.913C190.553 644.78 190.88 644.627 191.207 644.494C196.975 659.14 202.435 673.137 206.511 684.045ZM185.496 634.425C168.712 641.862 152.254 649.204 136.354 656.317L129.49 637.495C129.278 636.942 128.682 636.618 128.106 636.77L117.743 639.497L73.9448 537.453L113.84 517.334C117.762 520.443 122.395 524.047 127.74 528.185C137.18 535.527 149.928 545.405 152.927 548.361C154.1 551.889 157.81 561.176 169.538 590.354C174.614 602.997 180.805 618.387 186.919 633.757C186.458 634.005 185.977 634.234 185.496 634.425ZM158.56 659.025L171.98 699.95C161.271 704.736 148.832 710.228 135.373 716.159L121.069 675.826C133.162 670.372 145.698 664.765 158.56 659.025ZM133.239 717.075C121.376 722.281 108.764 727.811 95.8821 733.418L81.2123 693.79C93.1327 688.393 105.764 682.691 118.935 676.76L133.239 717.075ZM104.265 762.728L85.173 769.365L75.4252 744.86C79.655 743.01 83.904 741.179 88.1531 739.329C90.3257 738.376 92.4598 737.46 94.5555 736.545L104.265 762.728ZM83.4234 771.234C83.5964 771.691 84.0386 771.958 84.5001 771.958C84.6346 771.958 84.75 771.939 84.8846 771.901L105.053 764.902L111.513 782.333L92.6905 790.342C92.0945 790.59 91.8253 791.276 92.0753 791.848C92.2675 792.287 92.6905 792.554 93.1327 792.554C93.2865 792.554 93.4403 792.516 93.5942 792.459L112.301 784.487L123.645 815.133L78.5591 831.133C78.5399 831.038 78.5399 830.942 78.5014 830.847L49.3926 756.149C57.1793 752.774 65.1968 749.303 73.2911 745.775L83.4234 771.234ZM230.371 840.267L221.277 808.63L231.409 803.557L240.984 834.508L230.371 840.267ZM255.807 826.48L243.06 833.402L233.601 802.795C233.562 802.699 233.505 802.623 233.466 802.547L244.098 797.226L255.807 826.48ZM219.642 806.895C217.316 806.876 201.57 806.971 180.401 813.207C179.786 789.941 184.747 777.622 195.494 769.098C221.354 748.578 226.929 727.124 225.93 710.61L238.657 712.841L260.133 786.585L219.642 806.895ZM279.129 777.47C279.11 777.47 279.091 777.489 279.071 777.508C279.052 777.508 279.052 777.508 279.033 777.508L262.248 785.555L251.347 748.102L293.299 736.564L304.45 767.935L279.129 777.47ZM298.855 794.042C299.067 793.565 298.932 793.031 298.528 792.707L281.801 778.938L316.236 765.951L334.27 845.455L306.988 852.091L279.533 838.208L298.855 794.042ZM260.595 881.478L278.61 840.306L305.296 853.807L286.377 891.661L260.595 881.478ZM306.2 923.051L303.45 899.042C303.412 898.622 303.124 898.26 302.72 898.107L288.531 892.501L307.642 854.265L334.77 847.667L350.555 917.292L306.2 923.051ZM496.426 876.157C496.33 876.176 496.253 876.196 496.157 876.234L455.262 892.806C455.262 892.672 455.243 892.539 455.185 892.405L447.668 873.221C447.475 872.725 446.956 872.42 446.418 872.496L414.021 877.378L405.793 821.178L415.848 813.855C416.252 813.569 416.406 813.054 416.271 812.597L409.196 789.427C409.003 788.816 408.369 788.473 407.754 788.664C407.138 788.854 406.792 789.484 406.985 790.094L413.829 812.482L403.87 819.729C403.524 819.977 403.351 820.396 403.409 820.816L411.907 878.846C411.945 879.151 412.118 879.418 412.368 879.609C412.618 879.8 412.926 879.857 413.233 879.819L445.86 874.899L453.051 893.225C453.109 893.378 453.224 893.473 453.339 893.568L358.669 931.938L320.677 764.445L399.025 755.558C399.14 755.539 399.236 755.52 399.352 755.482L414.733 749.055L432.114 776.249L423.558 784.735C423.154 785.136 423.096 785.765 423.442 786.223L437.612 805.827C437.843 806.132 438.189 806.304 438.554 806.304C438.727 806.304 438.9 806.265 439.054 806.189L480.564 786.013L502.232 786.738L505.52 792.001L515.556 807.734L496.637 821.522L487.774 810.118C487.389 809.622 486.659 809.526 486.14 809.908C485.64 810.289 485.544 811.014 485.928 811.529L494.753 822.875L484.544 830.313C484.256 830.523 484.063 830.866 484.063 831.247L484.063 849.059C484.063 849.345 484.159 849.612 484.352 849.822L506.231 874.651L496.426 876.157ZM508.981 874.27L486.428 848.658L486.428 831.858L517.575 809.145L530.168 807.581L554.528 832.048L582.81 863.075L508.981 874.27ZM641.393 927.189L626.858 943.875L595.769 908.672L571.178 887.409L562.545 868.491L585.271 865.059C585.29 865.059 585.31 865.04 585.348 865.021C585.521 864.982 585.675 864.925 585.809 864.811C585.829 864.792 585.848 864.811 585.848 864.792L585.867 864.773L595.48 856.706L611.746 879.38L641.393 927.189ZM631.28 906.46L614.149 878.827L631.107 859.185L636.606 865.726C636.606 865.726 636.625 865.726 636.625 865.745C636.625 865.745 636.625 865.745 636.625 865.764L654.121 885.445L631.28 906.46ZM655.832 883.881L639.201 865.173L651.064 856.458L667.022 873.583L655.832 883.881ZM668.214 871.504L652.929 855.085L672.655 840.592L675.904 850.832L668.214 871.504ZM706.513 879.971L699.149 888.744L670.079 873.106L678.019 851.824L707.147 844.291L712.704 851.157L706.513 879.971ZM775.689 953.296L735.525 912.086L729.95 895.247C729.834 894.884 729.527 894.598 729.161 894.503L712.723 889.964L708.82 880.41L715.126 851.118C715.203 850.775 715.107 850.432 714.896 850.165L708.532 842.308C708.243 841.946 707.782 841.793 707.34 841.908L677.962 849.497L674.674 839.161L708.435 814.37L725.778 797.798L826.255 905.544L775.689 953.296ZM827.908 903.943L799.742 873.755L831.331 847.228L854.729 878.598L827.908 903.943ZM856.363 876.882L833.369 846.084L874.552 830.16L885.895 842.899L869.13 862.198C869.13 862.198 869.13 862.198 869.111 862.198L856.363 876.882ZM920.484 929.23L911.639 907.814C911.543 907.566 911.351 907.375 911.12 907.242L858.094 878.389L870.168 864.506L932 914.145L920.484 929.23ZM933.404 912.333L871.687 862.789L887.606 844.482L948.862 892.138L933.404 912.333ZM950.246 890.288L890.048 843.452L926.174 834.813L970.203 864.181L950.246 890.288ZM970.607 906.117L952.073 891.7L972.106 865.459L992.371 878.98C985.161 887.943 977.894 897.02 970.607 906.117ZM993.832 877.168L927.04 832.62C926.771 832.449 926.444 832.392 926.117 832.449L887.856 841.583L877.09 829.474L929.232 818.089C929.539 818.013 929.808 817.822 929.981 817.555C930.154 817.288 930.193 816.964 930.116 816.659L917.234 769.174C917.061 768.564 916.427 768.202 915.811 768.354L864.4 782.046L858.478 763.51L895.335 751.954H895.355H895.374L895.451 751.935L911.063 745.489C911.562 745.279 911.851 744.764 911.755 744.249L907.294 715.949C907.294 715.93 907.275 715.911 907.275 715.911C907.275 715.892 907.275 715.873 907.275 715.854L905.045 707.006C904.891 706.395 904.256 706.014 903.641 706.166C903.026 706.319 902.641 706.948 902.795 707.559L904.737 715.282L847.558 729.375L844.02 718.333L859.843 700.159L926.405 682.272L933.115 700.255C933.173 700.426 933.269 700.579 933.404 700.693L1007.43 769.918L1012.35 824.268C1012.39 824.592 1012.54 824.878 1012.79 825.069L1027.02 836.053C1016.19 849.402 1005.1 863.171 993.832 877.168ZM1071.12 863.514L1054.93 892.1L1053.09 895.437L1010.89 874.422C1021.75 860.939 1033.19 846.809 1044.71 832.678L1076.03 835.08L1071.12 863.514ZM1046.47 830.485C1062.18 811.224 1077.95 792.02 1092.52 774.571L1127.55 784.602L1196.4 804.32C1192.17 819.519 1188.61 832.277 1188 834.508L1180.54 840.801L1046.47 830.485ZM1179.42 879.762L1165.68 858.174L1189.81 835.996L1246.79 787.977C1251.93 790.189 1255.29 792.44 1257.56 795.014C1264.1 802.471 1297.94 839.295 1311.07 853.559L1234.6 929.916L1179.42 879.762ZM1257.95 951.179L1236.3 931.48L1251.54 916.262L1273.65 934.359L1257.95 951.179ZM1275.23 932.681L1253.18 914.622L1267.87 899.957L1294.48 912.105L1275.23 932.681ZM1269.6 898.241L1312.61 855.295C1314.09 856.897 1315.2 858.117 1315.78 858.746C1317.03 860.863 1321.14 867.843 1326.87 877.473L1308.57 916.033L1269.6 898.241ZM1332.43 864.143C1329.95 859.948 1327.6 856 1325.49 852.396C1325.28 852.053 1325.05 851.71 1324.76 851.423C1324.68 851.328 1323.2 849.726 1320.8 847.114L1321.12 846.789L1336.74 853.083L1332.43 864.143ZM1338.89 853.941L1354.96 860.406C1354.94 860.444 1354.9 860.482 1354.89 860.52L1345.19 885.597C1341.25 878.999 1337.45 872.61 1333.93 866.661L1338.89 853.941ZM1349.25 934.588L1310.68 916.987L1328.31 879.857C1335.39 891.757 1344.6 907.146 1353.81 922.364C1352.33 926.331 1350.79 930.431 1349.25 934.588ZM1358.98 908.539C1354.87 901.711 1350.73 894.827 1346.71 888.114L1357.08 861.34C1357.1 861.302 1357.08 861.283 1357.1 861.245L1374.44 868.224C1370.52 878.045 1365.17 892.062 1358.98 908.539ZM1407.32 945.973L1373.73 932.815C1371.42 929.058 1369.04 925.149 1366.61 921.182C1369.98 912.143 1373.13 903.752 1375.98 896.238L1419.97 915.347L1407.32 945.973ZM1420.85 913.192L1376.78 894.064C1380.03 885.502 1382.82 878.198 1385.05 872.534L1430.14 890.689L1420.85 913.192ZM1439.33 868.51L1431.04 888.553L1408.68 879.552C1408.8 879.457 1408.93 879.361 1408.99 879.209L1418.7 858.937L1439.33 868.51ZM1417.1 856.916L1406.91 878.236C1406.82 878.427 1406.8 878.618 1406.82 878.808L1385.92 870.398C1388.09 864.887 1389.61 861.283 1390.26 860.1C1391.74 857.965 1395.39 850.584 1400.18 840.401L1420.47 849.879L1417.1 856.916ZM1430.56 830.141C1430.16 830.179 1429.79 830.389 1429.62 830.771L1421.47 847.8L1401.16 838.303C1403.57 833.173 1406.22 827.433 1408.99 821.331L1430.56 830.141ZM1380.82 853.445C1380.11 854.379 1378.15 858.918 1375.26 866.107L1322.89 845.016L1388.67 779.338C1399.62 778.614 1408.93 779.377 1414.85 780.158C1400.18 813.016 1383.55 849.555 1380.82 853.445ZM1438.4 726.4C1437.89 727.754 1437.44 728.898 1437.08 729.756C1434.41 736.049 1427.68 751.401 1419.74 769.25C1413.51 768.221 1401.72 766.848 1387.3 767.896C1413.58 757.904 1428.04 742.743 1438.4 726.4ZM1372.96 781.379C1377.15 780.54 1381.21 779.987 1385.11 779.625L1320.55 844.081L1316.51 842.461C1301.84 826.499 1272.21 794.232 1266.29 787.481C1264.54 785.479 1262.46 783.686 1259.94 782.008C1298.76 784.201 1352.19 785.498 1372.96 781.379ZM1336.7 658.243L1283.69 729.852C1283.61 729.947 1283.56 730.08 1283.52 730.195L1271.1 771.081C1250.99 770.108 1233.16 768.812 1223.32 767.629C1220.65 767.305 1215.95 766.638 1209.61 765.379C1212.57 754.719 1214.72 746.938 1214.9 746.252C1215.15 745.241 1216.38 732.064 1216.05 716.674L1275.92 661.447C1281.57 659.769 1285.02 658.777 1285.19 658.739C1286.32 658.415 1287.32 657.747 1288.07 656.851L1308.59 631.85L1336.7 658.243ZM1280.23 648.193C1272.1 650.558 1238.99 660.246 1207.71 670.696C1203.05 657.557 1191.46 624.432 1190.08 618.12C1189.69 616.384 1186.71 603.359 1182.21 583.66C1181.54 580.742 1180.83 577.634 1180.1 574.392L1341.71 534.669L1350.89 562.13L1280.23 648.193ZM1432.52 403.619L1358.52 548.38L1318.39 428.315L1432.52 403.619ZM1327.76 259.601C1339.08 270.128 1404.68 349.498 1416.77 364.144L1407.37 397.307L1315.22 417.254L1271.79 229.566C1290.44 237.995 1319.64 252.05 1327.76 259.601ZM1280.34 317.956C1268.6 321.141 1251.95 325.584 1235.05 329.913L1235.05 291.544C1235.05 291.429 1235.03 291.296 1234.99 291.182L1218.17 240.016L1266.33 257.389L1280.34 317.956ZM1082.68 7.64712L1157.49 13.3109L1169.08 45.8636L1125.26 48.8386C1125.19 48.8386 1125.09 48.8576 1125.01 48.8767L1082.68 61.3486L1082.68 7.64712ZM1082.68 63.7705L1125.55 51.146L1169.89 48.133L1173.75 58.9648L1082.68 103.131L1082.68 63.7705ZM1082.68 105.687L1174.52 61.1388L1178.66 72.7334C1178.67 72.7906 1178.71 72.8478 1178.73 72.9051C1180.52 77.7107 1190.11 96.1706 1202.25 118.921L1105.71 166.654C1105.13 166.94 1104.9 167.626 1105.19 168.198C1105.4 168.599 1105.81 168.828 1106.23 168.828C1106.4 168.828 1106.58 168.79 1106.75 168.713L1203.32 120.962C1222.34 156.547 1247.08 201.705 1258.04 221.671L1263.23 244.078L1198.11 220.584C1197.02 220.184 1195.81 220.126 1194.69 220.412L1120.19 239.483L1074.31 199.759L1070.16 162.096L1095.41 149.643C1095.92 149.395 1096.17 148.804 1095.98 148.251L1082.66 108.166L1082.66 105.687H1082.68ZM1080.37 7.47549L1080.37 104.504C1080.2 104.828 1080.16 105.21 1080.33 105.553C1080.35 105.572 1080.37 105.591 1080.37 105.61L1080.37 108.337C1080.37 108.452 1080.39 108.585 1080.43 108.7L1093.48 148.003L1069.91 159.636L1055.51 28.8149C1055.59 28.8531 1055.65 28.8912 1055.72 28.9103L1070.7 32.2285L1070.7 45.4822L1058.82 44.2236C1058.18 44.1664 1057.61 44.605 1057.55 45.2534C1057.47 45.8827 1057.93 46.4548 1058.59 46.512L1071.76 47.9232C1071.8 47.9232 1071.83 47.9232 1071.87 47.9232C1072.16 47.9232 1072.43 47.8279 1072.64 47.6371C1072.89 47.4274 1073.03 47.1032 1073.03 46.779L1073.03 31.3322C1073.03 30.7982 1072.64 30.3215 1072.12 30.2071L1056.24 26.6982C1055.9 26.6219 1055.57 26.7172 1055.32 26.8889L1052.95 5.41591L1080.37 7.47549ZM1054.86 65.4677L1037.28 61.9588L1037.28 59.6704C1037.28 59.575 1037.26 59.4797 1037.25 59.3843L1029.79 30.0545L1050.43 25.287L1054.86 65.4677ZM1048.26 5.56847L1050.18 23.0176L1029.23 27.8614L1024.54 9.42064L1048.26 5.56847ZM1022.25 9.78297L1026.98 28.3573L987.43 37.4918L985.103 15.8091L1022.25 9.78297ZM982.796 16.1905L985.142 38.0258L939.268 48.6288L935.172 23.9139L982.796 16.1905ZM932.885 24.2763L936.999 49.1246L886.222 53.854C886.049 46.4357 885.895 39.0556 885.741 31.9234L932.885 24.2763ZM884.069 125.672L846.596 125.672L844.02 107.555L883.165 106.24C883.434 113.467 883.742 120.046 884.069 125.672ZM881.339 42.965L877.686 32.4383H881.108C881.185 35.89 881.262 39.4179 881.339 42.965ZM880.531 1.4684C880.666 9.99274 880.858 19.7757 881.05 30.1499H876.878L867.13 2.00236L880.531 1.4684ZM825.64 3.64239L864.727 2.09771L874.436 30.1499L824.217 30.1499L825.64 3.64239ZM774.094 56.1234C782.649 50.2498 804.26 34.5169 807.086 32.4573H822.929C822.948 32.4573 822.967 32.4573 822.986 32.4573H823.006L875.244 32.4383L881.512 50.5358C881.935 68.9957 882.454 87.8942 883.069 103.932L842.655 105.286C842.328 105.305 842.021 105.439 841.809 105.706C841.598 105.954 841.501 106.278 841.54 106.602L844.443 126.969C844.52 127.541 845.02 127.96 845.597 127.96L884.222 127.96C884.645 134.921 885.107 140.184 885.607 143.007C888.683 160.532 895.335 261.07 896.97 286.071L832.35 293.451C829.946 293.489 812.143 293.737 791.224 293.68L791.224 243.964C791.224 243.831 791.205 243.697 791.147 243.564L728.431 74.1446C734.853 72.085 765.653 61.9207 774.094 56.1234ZM591.577 137.457C596.98 132.099 608.9 110.016 610.688 106.678L702.302 73.2102L726.085 74.5641L788.879 244.193L788.879 293.699C766.576 293.604 741.332 293.108 727.547 291.601C702.591 288.855 642.335 273.961 628.454 270.491L598.384 191.35C598.095 190.587 597.634 189.881 597.057 189.309L563.334 155.841C572.582 150.444 587.617 141.386 591.577 137.457ZM277.399 104.867L280.648 30.9127L332.213 44.3762C332.309 44.3952 332.405 44.4143 332.501 44.4143C332.713 44.4143 332.924 44.3571 333.117 44.2427C333.386 44.071 333.578 43.8041 333.636 43.4989L338.981 17.5826L384.644 29.2726L382.048 43.0603C374.511 54.407 368.705 63.2365 366.494 66.7263L299.951 110.588L277.399 104.867ZM359.841 84.9192C355.746 97.2385 349.036 117.338 341.903 137.553L302.239 122.888L359.841 84.9192ZM299.836 124.452L341.115 139.708C331.06 168.046 320.35 196.041 314.967 202.353C313.583 203.993 311.814 205.671 309.814 207.368L268.708 181.624L265.324 164.098L262.44 149.071L299.836 124.452ZM307.949 208.932C292.414 221.175 264.536 233.761 255.942 236.374C254.827 236.717 251.77 238.262 247.175 240.741C238.331 240.817 226.468 241.828 215.932 242.839C226.852 234.791 240.022 213.7 241.234 211.736L267.862 183.817L307.949 208.932ZM266.363 181.643L239.523 192.646L235.37 185.876L263.421 166.31L266.363 181.643ZM229.736 113.391L215.72 111.35L204.838 73.8013L214.99 70.445L229.736 113.391ZM198.397 22.3692L205.857 35.3751C204.588 36.9197 204.204 38.9793 204.857 40.8482L214.259 68.271L204.204 71.5892L201.55 62.3974C201.416 61.9588 201.031 61.6155 200.57 61.5774L189.034 60.2616L175.768 41.4584L198.397 22.3692ZM173.961 42.9459L187.4 61.9969C187.592 62.2639 187.88 62.4356 188.227 62.4737L199.512 63.7514L213.682 112.685C213.817 113.124 214.182 113.448 214.624 113.505L230.563 115.832L241.926 148.919C237.542 151.874 229.275 157.271 218.508 163.526L196.475 159.941C196.513 159.769 196.532 159.598 196.494 159.407L179.209 80.0564C179.152 79.7512 178.94 79.4842 178.671 79.3126C178.402 79.141 178.075 79.1028 177.767 79.1791L150.466 86.5974L143.198 68.8431L173.961 42.9459ZM185.112 118.025L194.167 159.56L152.85 152.847L146.755 126.587L185.112 118.025ZM146.236 124.356L138.776 92.1849L177.21 81.7345L184.631 115.775L146.236 124.356ZM152.985 155.193L215.355 165.338C197.994 175.216 174.941 186.716 151.235 194.019L152.985 155.193ZM120.761 36.729L132.816 39.7421L134.489 72.6381L102.054 76.1279L95.1707 46.1878L120.761 36.729ZM92.8828 46.5502L99.7466 76.3949L49.4119 81.7917L51.123 42.8315L92.8828 46.5502ZM45.8934 5.14893L57.9099 7.64712L49.1427 40.3524L39.2603 39.4751L45.8934 5.14893ZM15.2658 52.5954L38.0875 41.6682L48.7966 42.6217L47.1047 81.601L12.7471 72.7143L15.2658 52.5954ZM2.21104 104.733L5.21036 73.153L26.8977 78.7596L23.2255 108.852L2.21104 104.733ZM41.2791 154.334L44.7975 115.126L75.6367 113.563L81.9237 153.724L41.2791 154.334ZM77.7708 112.189C77.6747 111.598 77.1556 111.198 76.5596 111.217L43.817 112.876L25.5134 109.291L29.1665 79.3317L47.9122 84.1755C47.9699 84.1946 48.0468 84.1946 48.1045 84.1946C48.1237 84.1946 48.1429 84.2136 48.1429 84.2136C48.1622 84.2136 48.1814 84.2136 48.2006 84.2136C48.2391 84.2136 48.2775 84.2136 48.316 84.2136L135.835 74.8121C135.854 74.8121 135.873 74.793 135.892 74.793C136.085 74.7549 136.238 74.6976 136.373 74.5832C136.392 74.5642 136.431 74.5642 136.45 74.5451L141.333 70.4259L148.197 87.2267L137.046 90.2589C136.45 90.4305 136.085 91.0217 136.219 91.6319L150.389 152.733L84.2309 153.705L77.7708 112.189ZM115.282 201.133C107.745 201.628 99.8043 201.476 91.6523 200.885L84.6154 155.994L150.658 155.002L148.87 194.763C137.623 198.081 126.241 200.408 115.282 201.133ZM147.755 207.044C199.628 192.99 248.944 158.187 252.135 155.917L260.383 150.482L262.96 163.85L233.178 184.637C232.678 184.98 232.543 185.667 232.851 186.182L238.1 194.706C238.388 195.183 239.003 195.392 239.542 195.164L263.152 185.476L239.503 210.267C239.446 210.324 239.388 210.382 239.35 210.458C239.157 210.763 220.988 240.169 210.202 243.411C210.049 243.43 209.895 243.449 209.76 243.449C209.203 243.506 208.645 243.564 208.087 243.602L208.087 222.377C208.087 221.843 207.722 221.385 207.203 221.251L147.755 207.044ZM182.478 217.704L205.761 223.273L205.761 243.811C201.3 244.231 197.551 244.574 195.302 244.689C192.168 244.822 185.746 243.792 178.421 242.305L182.478 217.704ZM36.3187 338.514L39.0104 326.137C39.0681 325.908 39.0488 325.679 38.9527 325.47L24.3983 289.809L25.3596 265.971L109.033 233.666L141.622 235.935C144.544 236.717 185.266 247.435 195.398 246.996C198.34 246.863 203.723 246.348 209.952 245.738C219.662 244.803 232.543 243.544 242.772 243.163C205.146 264.007 98.9775 327.281 45.855 359.052L36.3187 338.514ZM50.7577 369.56C137.68 317.575 251.135 250.391 259.345 247.378C269.593 244.25 309.718 226.42 323.83 209.79C333.405 198.501 353.131 141.672 371.147 87.57C373.435 80.7238 375.415 74.7549 375.953 73.3627C377.184 71.3222 384.509 60.2234 394.66 44.9483L482.448 52.7479L515.46 124.146C515.748 124.776 516.152 125.329 516.633 125.825L587.944 196.556L616.822 272.569L595.057 283.744C593.558 284.507 592.481 285.899 592.077 287.52L580.042 337.636C579.676 339.143 579.945 340.726 580.772 342.023L601.46 374.709L597.172 460.524L530.822 510.431C515.037 515.484 309.43 581.429 197.513 629.238C192.187 615.869 186.362 601.357 180.267 586.196C172.519 566.936 165.193 548.704 163.924 545.005C163.751 541.916 161.617 539.989 134.854 519.222C123.914 510.717 110.283 500.152 107.956 497.52C104.938 494.088 97.5932 475.227 92.2675 458.941C92.1906 458.732 92.1137 458.522 92.0176 458.312L50.7577 369.56ZM10.0746 524.848L32.6464 513.387C32.8772 513.272 33.0694 513.062 33.1848 512.834L47.3546 481.025C47.3931 480.929 47.4315 480.834 47.4315 480.739L50.1617 462.66L76.7518 452.801L81.4046 462.775C83.5772 469.373 93.3058 498.245 99.2852 505.034C100.996 506.979 105.284 510.564 111.878 515.809L71.9644 535.927C71.4261 536.194 71.1762 536.843 71.4261 537.396L104.476 614.42L55.9296 633.09L10.0746 524.848ZM56.7948 635.226L105.361 616.537L115.531 640.26L66.8502 658.987L56.7948 635.226ZM67.7539 661.085L117.435 641.976L127.683 639.268L134.239 657.252C113.993 666.329 94.7285 675.006 77.0402 683.015L67.7539 661.085ZM33.5501 715.473C46.8932 709.37 62.2551 702.391 79.0974 694.763L93.748 734.371C78.7514 740.912 63.4471 747.568 48.5467 754.013L33.5501 715.473ZM2.46098 776.459C15.3811 770.89 30.7815 764.235 47.2777 757.084L76.3481 831.705C76.3865 831.781 76.4442 831.819 76.5019 831.877L27.1285 849.402L2.46098 776.459ZM27.8591 851.576L63.5625 838.914C63.5817 838.99 63.5817 839.066 63.601 839.142L70.9839 857.984L35.0497 872.801L27.8591 851.576Z" fill="#6775FF"/>
</svg>
